<svg height="28" viewBox="0 0 24 28" width="24" xmlns="http://www.w3.org/2000/svg">
    <path d="m6 24h12v-6h-12zm14 0h2v-14c0-.297-.266-.938-.469-1.141l-4.391-4.391c-.219-.219-.828-.469-1.141-.469v6.5c0 .828-.672 1.5-1.5 1.5h-9c-.828 0-1.5-.672-1.5-1.5v-6.5h-2v20h2v-6.5c0-.828.672-1.5 1.5-1.5h13c .828 0 1.5.672 1.5 1.5v6.5zm-6-14.5v-5c0-.266-.234-.5-.5-.5h-3c-.266 0-.5.234-.5.5v5c0 .266.234.5.5.5h3c .266 0 .5-.234.5-.5zm10 .5v14.5c0 .828-.672 1.5-1.5 1.5h-21c-.828 0-1.5-.672-1.5-1.5v-21c0-.828.672-1.5 1.5-1.5h14.5c.828 0 1.969.469 2.562 1.062l4.375 4.375c.594.594 1.062 1.734 1.062 2.562z"/>
    <path d="m6 21v-3h6 6v3 3h-6-6z" stroke="#000" stroke-width=".06"/>
</svg>